# xmcd
#
# Track frame offsets:
#	150
#	13365
#	28897
#	46032
#	59447
#	73785
#	89245
#	101440
#	115142
#	126940
#
# Disc length: 1915 seconds
#
# Revision: 6
# Processed by: cddbd v1.5.2PL0 Copyright (c) Steve Scherf et al.
# Submitted via: audiograbber 1.83.01
#
DISCID=9007790a
DTITLE=Skip Ewing - Naturally
DYEAR=1991
DGENRE=Country
TTITLE0=The Yodelin' Blues
TTITLE1=Naturally
TTITLE2=I Wish I Was Somebody Else
TTITLE3=I Get the Picture
TTITLE4=Hangin' Around With You
TTITLE5=I Love Your Love in My Life
TTITLE6=No Reason at All
TTITLE7=One Step Out of Time
TTITLE8=I Could Not Send You Me
TTITLE9=What I Wouldn't Give
EXTD=
EXTT0=
EXTT1=
EXTT2=
EXTT3=
EXTT4=
EXTT5=
EXTT6=
EXTT7=
EXTT8=
EXTT9=
PLAYORDER=
